<?xml version="1.0" standalone="no"?>
<!DOCTYPE svg PUBLIC "-//W3C//DTD SVG 20010904//EN"
 "http://www.w3.org/TR/2001/REC-SVG-20010904/DTD/svg10.dtd">
<svg version="1.0" xmlns="http://www.w3.org/2000/svg"
 width="260.000000pt" height="260.000000pt" viewBox="0 0 260.000000 260.000000"
 preserveAspectRatio="xMidYMid meet">
<metadata>
Created by potrace 1.14, written by Peter Selinger 2001-2017
</metadata>
<g transform="translate(0.000000,260.000000) scale(0.100000,-0.100000)"
fill="#000000" stroke="none">
<path d="M0 1300 l0 -1300 1300 0 1300 0 0 1300 0 1300 -1300 0 -1300 0 0
-1300z m985 575 c165 -43 270 -162 283 -321 7 -94 7 -94 -162 -94 -77 0 -147
4 -154 9 -8 4 -16 27 -19 49 -3 23 -14 49 -24 58 -26 23 -88 23 -105 -1 -32
-43 -8 -69 137 -144 268 -139 331 -208 332 -365 0 -87 -13 -138 -54 -199 -61
-93 -167 -146 -311 -154 -194 -12 -340 54 -413 189 -23 41 -30 69 -33 132 -4
68 -2 81 14 93 22 16 265 19 295 3 12 -7 19 -22 19 -43 1 -41 20 -65 61 -77
58 -17 110 27 78 66 -6 8 -75 47 -153 86 -173 89 -258 164 -295 263 -61 160
14 347 167 421 93 45 229 57 337 29z m870 -1 c165 -43 271 -164 283 -324 7
-101 8 -100 -164 -100 -160 0 -174 5 -174 65 0 75 -79 107 -127 51 -23 -27
-23 -30 -23 -266 0 -234 0 -239 23 -264 24 -28 48 -34 89 -23 20 5 30 16 37
45 17 59 15 62 -33 62 -25 0 -48 6 -55 14 -8 9 -11 54 -9 132 l3 119 204 3
c142 2 208 -1 217 -9 11 -9 14 -49 14 -179 0 -196 -15 -263 -77 -344 -90 -116
-284 -174 -452 -135 -120 27 -229 118 -273 227 -22 55 -23 67 -23 352 0 285 1
297 23 352 43 107 143 192 262 224 63 18 185 17 255 -2z"/>
<path d="M709 1828 c-89 -31 -141 -75 -178 -150 -26 -52 -31 -72 -30 -132 1
-82 12 -117 56 -180 42 -59 102 -102 250 -176 131 -67 160 -88 169 -124 7 -28
-18 -81 -41 -90 -9 -3 -38 -6 -65 -6 -63 0 -107 34 -116 91 l-7 39 -123 0
-124 0 0 -54 c0 -135 86 -239 234 -281 91 -27 242 -18 322 19 119 54 178 146
178 276 0 146 -55 205 -321 344 -128 66 -155 90 -156 140 -1 53 34 86 90 86
74 0 122 -38 123 -97 l0 -33 131 0 132 0 -6 60 c-10 116 -72 200 -186 254 -58
27 -79 31 -166 34 -84 2 -111 -1 -166 -20z"/>
<path d="M1600 1836 c-101 -29 -168 -83 -212 -174 l-33 -67 0 -295 0 -295 33
-67 c66 -135 189 -196 373 -186 147 8 257 77 312 196 20 42 22 68 25 230 l4
182 -181 0 -181 0 0 -99 0 -100 48 -3 47 -3 3 -63 c3 -58 1 -65 -27 -92 -53
-54 -153 -34 -186 36 -21 45 -22 478 -1 528 19 46 52 66 107 66 41 0 51 -4 78
-35 22 -25 31 -46 31 -70 l0 -35 131 0 132 0 -5 65 c-10 114 -80 211 -192 261
-52 24 -76 28 -161 31 -60 1 -118 -3 -145 -11z"/>
</g>
</svg>
